/* XPM */
static char *ffffdbea2b6d40a893602d85f13d0b7b4fKY0uGljoegsNat[] = {
/* columns rows colors chars-per-pixel */
"96 96 5 1 ",
"  c black",
". c #070815",
"X c #434343",
"o c #838282",
"O c white",
/* pixels */
"................................................................................................",
"................................................................................................",
"................................................................................................",
"......OOO.......................................OOO.............................................",
"......OOO.......................................OOO.............................................",
"......OOO.......................................OOO.............................................",
"................................................................................................",
"................................................................................................",
"................................................................................................",
".....................OOO..............................OOO.......................................",
".....................OOO..............................OOO.......................................",
".....................OOO..............................OOO.......................................",
".......................................OOO......................................................",
".......................................OOO......................................................",
".......................................OOO......................................................",
"................................................................................................",
"................................................................................................",
"................................................................................................",
"................................................................................................",
"................................................................................................",
"................................................................................................",
"................................................OOO...........................OOO...............",
"................................................OOO...........................OOO...............",
"................................................OOO...........................OOO...............",
"..............................OOO...............................................................",
"..............................OOO...............................................................",
"..............................OOO...............................................................",
"................................................................................................",
"................................................................................................",
"................................................................................................",
".........         .........................................................         ............",
".........         .........................................................         ............",
".........         .........................................................         ............",
"......   OOOOOOOOO   ...................................................   OOOOOOOOO   .........",
"......   OOOOOOOOO   ...................................................   OOOOOOOOO   .........",
"......   OOOOOOOOO   ...................................................   OOOOOOOOO   .........",
"......   OOOOOOOOO   ...................................................   OOOOOOOOO   .........",
"......   OOOOOOOOO   ...................................................   OOOOOOOOO   .........",
"......   OOOOOOOOO   ...................................................   OOOOOOOOO   .........",
"......   OOOOOOOOOOOO                                                   OOOOOOOOOOOO   .........",
"......   OOOOOOOOOOOO                                                   OOOOOOOOOOOO   .........",
"......   OOOOOOOOOOOO                                                   OOOOOOOOOOOO   .........",
"......   OOOOOOOOOOOOOOOOOOOOOOOOOOOOOOOOOOOOOOOOOOOOOOOOOOOOOOOOOOOOOOOOOOOOOOOOooo   .........",
"......   OOOOOOOOOOOOOOOOOOOOOOOOOOOOOOOOOOOOOOOOOOOOOOOOOOOOOOOOOOOOOOOOOOOOOOOOooo   .........",
"......   OOOOOOOOOOOOOOOOOOOOOOOOOOOOOOOOOOOOOOOOOOOOOOOOOOOOOOOOOOOOOOOOOOOOOOOOooo   .........",
".........   OOOOOOOOOOOOOOOOOOOOOOOOOOOOOOOOOOOOOOOOOOOOOOOOOOOOOOOOOOOOOOOoooooo   ............",
".........   OOOOOOOOOOOOOOOOOOOOOOOOOOOOOOOOOOOOOOOOOOOOOOOOOOOOOOOOOOOOOOOoooooo   ............",
".........   OOOOOOOOOOOOOOOOOOOOOOOOOOOOOOOOOOOOOOOOOOOOOOOOOOOOOOOOOOOOOOOoooooo   ............",
".........   OOOOOOOOOoooooooooooooooooooooooooooooooooooooooooooooooooooooooooooo   ............",
".........   OOOOOOOOOoooooooooooooooooooooooooooooooooooooooooooooooooooooooooooo   ............",
".........   OOOOOOOOOoooooooooooooooooooooooooooooooooooooooooooooooooooooooooooo   ............",
"......   OOOOOOooooooXXXXXXXXXXXXXXXXXXXXXXXXXXXXXXXXXXXXXXXXXXXXXXXXXXXoooooooooooo   .........",
"......   OOOOOOooooooXXXXXXXXXXXXXXXXXXXXXXXXXXXXXXXXXXXXXXXXXXXXXXXXXXXoooooooooooo   .........",
"......   OOOOOOooooooXXXXXXXXXXXXXXXXXXXXXXXXXXXXXXXXXXXXXXXXXXXXXXXXXXXoooooooooooo   .........",
"......   oooooooooXXX                                                   XXXooooooooo   .........",
"......   oooooooooXXX                                                   XXXooooooooo   .........",
"......   oooooooooXXX                                                   XXXooooooooo   .........",
"......   ooooooooo   ...................................................   XXXoooooo   .........",
"......   ooooooooo   ...................................................   XXXoooooo   .........",
"......   ooooooooo   ...................................................   XXXoooooo   .........",
"......   XXXXXXXXX   ...........................OOO.....................   XXXXXXXXX   .........",
"......   XXXXXXXXX   ...........................OOO.....................   XXXXXXXXX   .........",
"......   XXXXXXXXX   ...........................OOO.....................   XXXXXXXXX   .........",
".........         .........................................................         ............",
".........         .........................................................         ............",
".........         .........................................................         ............",
"............OOO.................................................................................",
"............OOO.................................................................................",
"............OOO.................................................................................",
"................................................................................................",
"................................................................................................",
"................................................................................................",
"................................................................................................",
"................................................................................................",
"................................................................................................",
"........................................................................OOO.....................",
"........................................................................OOO.....................",
"........................................................................OOO.....................",
"........................OOO.................................OOO.................................",
"........................OOO.................................OOO.................................",
"........................OOO.................................OOO.................................",
"................................................................................................",
"................................................................................................",
"................................................................................................",
"................................................................................................",
"................................................................................................",
"................................................................................................",
"................................................................................................",
"................................................................................................",
"................................................................................................",
"................................................................................................",
"................................................................................................",
"................................................................................................",
"................................................................................................",
"................................................................................................",
"................................................................................................"
};
