/* XPM */
static char *_ef07520eb654febb8f504a33c3c280fWketVcP1xz6AsR0k[] = {
/* columns rows colors chars-per-pixel */
"96 96 6 1 ",
"  c #070815",
". c #422D0C",
"X c #63481B",
"o c #A1732B",
"O c #F29700",
"+ c white",
/* pixels */
"                                                                                                ",
"                                                                                                ",
"                                                                                                ",
"      +++                                       +++                                             ",
"      +++                                       +++                                             ",
"      +++                                       +++                                             ",
"               ...............................................................                  ",
"               ...............................................................                  ",
"               ...............................................................                  ",
"               ...............................................................                  ",
"               ...............................................................                  ",
"               ...............................................................                  ",
"               ......XXXXXXXXXXXXXXXXXXXXXXXXXXXXXXXXXXXXXXXXXXXXXXXXXXX......                  ",
"               ......XXXXXXXXXXXXXXXXXXXXXXXXXXXXXXXXXXXXXXXXXXXXXXXXXXX......                  ",
"               ......XXXXXXXXXXXXXXXXXXXXXXXXXXXXXXXXXXXXXXXXXXXXXXXXXXX......                  ",
"               ......XXXXXXXXXXXXXXXXXXXXXXXXXXXXXXXXXXXXXXXXXXXXXXXXXXX......                  ",
"               ......XXXXXXXXXXXXXXXXXXXXXXXXXXXXXXXXXXXXXXXXXXXXXXXXXXX......                  ",
"               ......XXXXXXXXXXXXXXXXXXXXXXXXXXXXXXXXXXXXXXXXXXXXXXXXXXX......                  ",
"               ......XXXXXX.......................................XXXXXX......                  ",
"               ......XXXXXX.......................................XXXXXX......                  ",
"               ......XXXXXX.......................................XXXXXX......                  ",
"               ......XXXXXX.......................................XXXXXX......+++               ",
"               ......XXXXXX.......................................XXXXXX......+++               ",
"               ......XXXXXX.......................................XXXXXX......+++               ",
"               ......XXXXXXoooooooooooooooooooooooooooooooooooooooXXXXXX......                  ",
"               ......XXXXXXoooooooooooooooooooooooooooooooooooooooXXXXXX......                  ",
"               ......XXXXXXoooooooooooooooooooooooooooooooooooooooXXXXXX......                  ",
"               ......XXXXXXoooooooooooooooooooooooooooooooooooooooXXXXXX......                  ",
"               ......XXXXXXoooooooooooooooooooooooooooooooooooooooXXXXXX......                  ",
"               ......XXXXXXoooooooooooooooooooooooooooooooooooooooXXXXXX......                  ",
"               ......XXXXXXoooooooooooooooooooooooooooooooooooooooXXXXXX......                  ",
"               ......XXXXXXoooooooooooooooooooooooooooooooooooooooXXXXXX......                  ",
"               ......XXXXXXoooooooooooooooooooooooooooooooooooooooXXXXXX......                  ",
"               ......XXXXXXoooooooooooooooooooooooooooooooooooooooXXXXXX......                  ",
"               ......XXXXXXoooooooooooooooooooooooooooooooooooooooXXXXXX......                  ",
"               ......XXXXXXoooooooooooooooooooooooooooooooooooooooXXXXXX......                  ",
"               ......XXXXXXoooooooooooooooooooooooooooooooooooooooXXXXXX......                  ",
"               ......XXXXXXoooooooooooooooooooooooooooooooooooooooXXXXXX......                  ",
"               ......XXXXXXoooooooooooooooooooooooooooooooooooooooXXXXXX......                  ",
"               ......XXXXXXoooooooooooooooooooooooooooooooooooooooXXXXXX......                  ",
"               ......XXXXXXoooooooooooooooooooooooooooooooooooooooXXXXXX......                  ",
"               ......XXXXXXoooooooooooooooooooooooooooooooooooooooXXXXXX......                  ",
"               ......XXXXXXXXXXXXXXXXXXXXXXXXXXXXXXXXXXXXXXXXXXXXXXXXXXX......                  ",
"               ......XXXXXXXXXXXXXXXXXXXXXXXXXXXXXXXXXXXXXXXXXXXXXXXXXXX......                  ",
"               ......XXXXXXXXXXXXXXXXXXXXXXXXXXXXXXXXXXXXXXXXXXXXXXXXXXX......                  ",
"               ......XXXXXXXXXXXXXXXXXXXXXXXXXXXXXXXXXXXXXXXXXXXXXOOOOOO......                  ",
"               ......XXXXXXXXXXXXXXXXXXXXXXXXXXXXXXXXXXXXXXXXXXXXXOOOOOO......                  ",
"               ......XXXXXXXXXXXXXXXXXXXXXXXXXXXXXXXXXXXXXXXXXXXXXOOOOOO......                  ",
"               ......XXXXXXXXXXXXXXXXXXXXXXXXXXXXXXXXXXXXXXXXXXXXXOOOOOO......                  ",
"               ......XXXXXXXXXXXXXXXXXXXXXXXXXXXXXXXXXXXXXXXXXXXXXOOOOOO......                  ",
"               ......XXXXXXXXXXXXXXXXXXXXXXXXXXXXXXXXXXXXXXXXXXXXXOOOOOO......                  ",
"               ......XXXXXX.......................................XXXXXX......                  ",
"               ......XXXXXX.......................................XXXXXX......                  ",
"               ......XXXXXX.......................................XXXXXX......                  ",
"               ......XXXXXX.......................................XXXXXX......                  ",
"               ......XXXXXX.......................................XXXXXX......                  ",
"               ......XXXXXX.......................................XXXXXX......                  ",
"               ......XXXXXXoooooooooooooooooooooooooooooooooooooooXXXXXX......                  ",
"               ......XXXXXXoooooooooooooooooooooooooooooooooooooooXXXXXX......                  ",
"               ......XXXXXXoooooooooooooooooooooooooooooooooooooooXXXXXX......                  ",
"               ......XXXXXXoooooooooooooooooooooooooooooooooooooooXXXXXX......                  ",
"               ......XXXXXXoooooooooooooooooooooooooooooooooooooooXXXXXX......                  ",
"               ......XXXXXXoooooooooooooooooooooooooooooooooooooooXXXXXX......                  ",
"               ......XXXXXXoooooooooooooooooooooooooooooooooooooooXXXXXX......                  ",
"               ......XXXXXXoooooooooooooooooooooooooooooooooooooooXXXXXX......                  ",
"               ......XXXXXXoooooooooooooooooooooooooooooooooooooooXXXXXX......                  ",
"            +++......XXXXXXoooooooooooooooooooooooooooooooooooooooXXXXXX......                  ",
"            +++......XXXXXXoooooooooooooooooooooooooooooooooooooooXXXXXX......                  ",
"            +++......XXXXXXoooooooooooooooooooooooooooooooooooooooXXXXXX......                  ",
"               ......XXXXXXoooooooooooooooooooooooooooooooooooooooXXXXXX......                  ",
"               ......XXXXXXoooooooooooooooooooooooooooooooooooooooXXXXXX......                  ",
"               ......XXXXXXoooooooooooooooooooooooooooooooooooooooXXXXXX......                  ",
"               ......XXXXXXoooooooooooooooooooooooooooooooooooooooXXXXXX......                  ",
"               ......XXXXXXoooooooooooooooooooooooooooooooooooooooXXXXXX......                  ",
"               ......XXXXXXoooooooooooooooooooooooooooooooooooooooXXXXXX......                  ",
"               ......XXXXXXXXXXXXXXXXXXXXXXXXXXXXXXXXXXXXXXXXXXXXXXXXXXX......                  ",
"               ......XXXXXXXXXXXXXXXXXXXXXXXXXXXXXXXXXXXXXXXXXXXXXXXXXXX......                  ",
"               ......XXXXXXXXXXXXXXXXXXXXXXXXXXXXXXXXXXXXXXXXXXXXXXXXXXX......                  ",
"               ......XXXXXXXXXXXXXXXXXXXXXXXXXXXXXXXXXXXXXXXXXXXXXXXXXXX......                  ",
"               ......XXXXXXXXXXXXXXXXXXXXXXXXXXXXXXXXXXXXXXXXXXXXXXXXXXX......                  ",
"               ......XXXXXXXXXXXXXXXXXXXXXXXXXXXXXXXXXXXXXXXXXXXXXXXXXXX......                  ",
"               ......XXXXXXXXXXXXXXXXXXXXXXXXXXXXXXXXXXXXXXXXXXXXXXXXXXX......                  ",
"               ......XXXXXXXXXXXXXXXXXXXXXXXXXXXXXXXXXXXXXXXXXXXXXXXXXXX......                  ",
"               ......XXXXXXXXXXXXXXXXXXXXXXXXXXXXXXXXXXXXXXXXXXXXXXXXXXX......                  ",
"               ...............................................................                  ",
"               ...............................................................                  ",
"               ...............................................................                  ",
"               ...............................................................                  ",
"               ...............................................................                  ",
"               ...............................................................                  ",
"               ...............................................................                  ",
"               ...............................................................                  ",
"               ...............................................................                  ",
"               ...............................................................                  ",
"               ...............................................................                  ",
"               ...............................................................                  "
};
