/* XPM */
static char *_c479b76eb724cdbc88efa32de75914874a3EjT4dBeBsFj4[] = {
/* columns rows colors chars-per-pixel */
"96 96 3 1 ",
"  c black",
". c #070815",
"X c white",
/* pixels */
"................................................................................................",
"................................................................................................",
"................................................................................................",
"......XXX.......................................XXX.............................................",
"......XXX.......................................XXX.............................................",
"......XXX.......................................XXX.............................................",
"................................................................................................",
"................................................................................................",
"................................................................................................",
".....................XXX..............................XXX.......................................",
".....................XXX..............................XXX.......................................",
".....................XXX..............................XXX.......................................",
".......................................XXX......................................................",
".......................................XXX......................................................",
".......................................XXX......................................................",
"................................................................................................",
"................................................................................................",
"................................................................................................",
"................................................   ...            ...   ........................",
"................................................   ...            ...   ........................",
"................................................   ...            ...   ........................",
".............................................   XXX   XXXXXXXXXXXX   XXX   ...XXX...............",
".............................................   XXX   XXXXXXXXXXXX   XXX   ...XXX...............",
".............................................   XXX   XXXXXXXXXXXX   XXX   ...XXX...............",
"..............................XXX............   XXXXXXXXXXXXXXXXXXXXXXXX   .....................",
"..............................XXX............   XXXXXXXXXXXXXXXXXXXXXXXX   .....................",
"..............................XXX............   XXXXXXXXXXXXXXXXXXXXXXXX   .....................",
".....................   ..................   XXXXXXXXXXXXXXXXXXXXXXXXXXX   .....................",
".....................   ..................   XXXXXXXXXXXXXXXXXXXXXXXXXXX   .....................",
".....................   ..................   XXXXXXXXXXXXXXXXXXXXXXXXXXX   .....................",
"..................   XXX   ............   XXXXXXXXXXXXXXX   XXXXXX   XXXXXX   ..................",
"..................   XXX   ............   XXXXXXXXXXXXXXX   XXXXXX   XXXXXX   ..................",
"..................   XXX   ............   XXXXXXXXXXXXXXX   XXXXXX   XXXXXX   ..................",
"..................   XXX   ......      XXXXXXXXXXXXXXXXXXXXXXXXXXXXXXXXXXXX   ..................",
"..................   XXX   ......      XXXXXXXXXXXXXXXXXXXXXXXXXXXXXXXXXXXX   ..................",
"..................   XXX   ......      XXXXXXXXXXXXXXXXXXXXXXXXXXXXXXXXXXXX   ..................",
"..................   XXX         XXXXXXXXXXXXXXXXXXXXXXXXXXX      XXXXXXXXX   ..................",
"..................   XXX         XXXXXXXXXXXXXXXXXXXXXXXXXXX      XXXXXXXXX   ..................",
"..................   XXX         XXXXXXXXXXXXXXXXXXXXXXXXXXX      XXXXXXXXX   ..................",
"..................   XXXXXXXXXXXXXXXXXXXXXXXXXXXXXXXXX   XXXXXX   XXX   XXX   ..................",
"..................   XXXXXXXXXXXXXXXXXXXXXXXXXXXXXXXXX   XXXXXX   XXX   XXX   ..................",
"..................   XXXXXXXXXXXXXXXXXXXXXXXXXXXXXXXXX   XXXXXX   XXX   XXX   ..................",
"..................   XXXXXXXXXXXXXXXXXXXXXXXXXXXXXXXXXXXX            XXXXXX   ..................",
"..................   XXXXXXXXXXXXXXXXXXXXXXXXXXXXXXXXXXXX            XXXXXX   ..................",
"..................   XXXXXXXXXXXXXXXXXXXXXXXXXXXXXXXXXXXX            XXXXXX   ..................",
"..................   XXXXXXXXXXXXXXXXXXXXXXXXXXXXXXXXXXXXXXXXXXXXXXXXXXXXXX   ..................",
"..................   XXXXXXXXXXXXXXXXXXXXXXXXXXXXXXXXXXXXXXXXXXXXXXXXXXXXXX   ..................",
"..................   XXXXXXXXXXXXXXXXXXXXXXXXXXXXXXXXXXXXXXXXXXXXXXXXXXXXXX   ..................",
"..................   XXXXXXXXXXXXXXXXXXXXXXXXXXXXXXXXXXXXXXXXXXXXXXXXXXXXXX   ..................",
"..................   XXXXXXXXXXXXXXXXXXXXXXXXXXXXXXXXXXXXXXXXXXXXXXXXXXXXXX   ..................",
"..................   XXXXXXXXXXXXXXXXXXXXXXXXXXXXXXXXXXXXXXXXXXXXXXXXXXXXXX   ..................",
"..................   XXXXXXXXXXXXXXXXXXXXXXXXXXXXXXXXXXXXXXXXXXXXXXXXXXXXXX   ..................",
"..................   XXXXXXXXXXXXXXXXXXXXXXXXXXXXXXXXXXXXXXXXXXXXXXXXXXXXXX   ..................",
"..................   XXXXXXXXXXXXXXXXXXXXXXXXXXXXXXXXXXXXXXXXXXXXXXXXXXXXXX   ..................",
"..................   XXXXXXXXXXXXXXXXXXXXXXXXXXXXXXXXXXXXXXXXXXXXXXXXXXXXXX   ..................",
"..................   XXXXXXXXXXXXXXXXXXXXXXXXXXXXXXXXXXXXXXXXXXXXXXXXXXXXXX   ..................",
"..................   XXXXXXXXXXXXXXXXXXXXXXXXXXXXXXXXXXXXXXXXXXXXXXXXXXXXXX   ..................",
".....................   XXXXXXXXXXXXXXXXXXXXXXXXXXXXXXXXXXXXXXXXXXXXXXXXXXX   ..................",
".....................   XXXXXXXXXXXXXXXXXXXXXXXXXXXXXXXXXXXXXXXXXXXXXXXXXXX   ..................",
".....................   XXXXXXXXXXXXXXXXXXXXXXXXXXXXXXXXXXXXXXXXXXXXXXXXXXX   ..................",
".....................   XXXXXXXXXXXXXXXXXXXXXXXXXXXXXXXXXXXXXXXXXXXXXXXX   .....................",
".....................   XXXXXXXXXXXXXXXXXXXXXXXXXXXXXXXXXXXXXXXXXXXXXXXX   .....................",
".....................   XXXXXXXXXXXXXXXXXXXXXXXXXXXXXXXXXXXXXXXXXXXXXXXX   .....................",
".....................   XXXXXX      XXXXXX            XXXXXX      XXXXXX   .....................",
".....................   XXXXXX      XXXXXX            XXXXXX      XXXXXX   .....................",
".....................   XXXXXX      XXXXXX            XXXXXX      XXXXXX   .....................",
"............XXX.........   XXX      XXXXXX   ......   XXXXXX   ...   XXX   .....................",
"............XXX.........   XXX      XXXXXX   ......   XXXXXX   ...   XXX   .....................",
"............XXX.........   XXX      XXXXXX   ......   XXXXXX   ...   XXX   .....................",
"...........................   ......   XXX   .........   XXX   ......   ........................",
"...........................   ......   XXX   .........   XXX   ......   ........................",
"...........................   ......   XXX   .........   XXX   ......   ........................",
".......................................   ...............   ....................................",
".......................................   ...............   ....................................",
".......................................   ...............   ....................................",
"........................................................................XXX.....................",
"........................................................................XXX.....................",
"........................................................................XXX.....................",
"........................XXX.................................XXX.................................",
"........................XXX.................................XXX.................................",
"........................XXX.................................XXX.................................",
"................................................................................................",
"................................................................................................",
"................................................................................................",
"................................................................................................",
"................................................................................................",
"................................................................................................",
"................................................................................................",
"................................................................................................",
"................................................................................................",
"................................................................................................",
"................................................................................................",
"................................................................................................",
"................................................................................................",
"................................................................................................",
"................................................................................................"
};
