/* XPM */
static char *d9a27c17e928417be3b4cdd228094917xe1SX4uqIs7AN7Ih[] = {
/* columns rows colors chars-per-pixel */
"96 96 3 1 ",
"  c black",
". c #070815",
"X c white",
/* pixels */
"................................................................................................",
"................................................................................................",
"................................................................................................",
"......XXX.......................................XXX.............................................",
"......XXX.......................................XXX.............................................",
"......XXX.......................................XXX.............................................",
"................................................................................................",
"................................................................................................",
"................................................................................................",
".....................XXX..............................XXX.......................................",
".....................XXX..............................XXX.......................................",
".....................XXX..............................XXX.......................................",
".......................................XXX......................................................",
".......................................XXX......................................................",
".......................................XXX......................................................",
"................................................................................................",
"................................................................................................",
"................................................................................................",
"........................   ...            ...   ................................................",
"........................   ...            ...   ................................................",
"........................   ...            ...   ................................................",
".....................   XXX   XXXXXXXXXXXX   XXX   ...........................XXX...............",
".....................   XXX   XXXXXXXXXXXX   XXX   ...........................XXX...............",
".....................   XXX   XXXXXXXXXXXX   XXX   ...........................XXX...............",
".....................   XXXXXXXXXXXXXXXXXXXXXXXX   .............................................",
".....................   XXXXXXXXXXXXXXXXXXXXXXXX   .............................................",
".....................   XXXXXXXXXXXXXXXXXXXXXXXX   .............................................",
".....................   XXXXXXXXXXXXXXXXXXXXXXXXXXX   ..................   .....................",
".....................   XXXXXXXXXXXXXXXXXXXXXXXXXXX   ..................   .....................",
".....................   XXXXXXXXXXXXXXXXXXXXXXXXXXX   ..................   .....................",
"..................   XXXXXX   XXXXXX   XXXXXXXXXXXXXXX   ............   XXX   ..................",
"..................   XXXXXX   XXXXXX   XXXXXXXXXXXXXXX   ............   XXX   ..................",
"..................   XXXXXX   XXXXXX   XXXXXXXXXXXXXXX   ............   XXX   ..................",
"..................   XXXXXXXXXXXXXXXXXXXXXXXXXXXXXXXXXXXX      ......   XXX   ..................",
"..................   XXXXXXXXXXXXXXXXXXXXXXXXXXXXXXXXXXXX      ......   XXX   ..................",
"..................   XXXXXXXXXXXXXXXXXXXXXXXXXXXXXXXXXXXX      ......   XXX   ..................",
"..................   XXXXXXXXX      XXXXXXXXXXXXXXXXXXXXXXXXXXX         XXX   ..................",
"..................   XXXXXXXXX      XXXXXXXXXXXXXXXXXXXXXXXXXXX         XXX   ..................",
"..................   XXXXXXXXX      XXXXXXXXXXXXXXXXXXXXXXXXXXX         XXX   ..................",
"..................   XXX   XXX   XXXXXX   XXXXXXXXXXXXXXXXXXXXXXXXXXXXXXXXX   ..................",
"..................   XXX   XXX   XXXXXX   XXXXXXXXXXXXXXXXXXXXXXXXXXXXXXXXX   ..................",
"..................   XXX   XXX   XXXXXX   XXXXXXXXXXXXXXXXXXXXXXXXXXXXXXXXX   ..................",
"..................   XXXXXX            XXXXXXXXXXXXXXXXXXXXXXXXXXXXXXXXXXXX   ..................",
"..................   XXXXXX            XXXXXXXXXXXXXXXXXXXXXXXXXXXXXXXXXXXX   ..................",
"..................   XXXXXX            XXXXXXXXXXXXXXXXXXXXXXXXXXXXXXXXXXXX   ..................",
"..................   XXXXXXXXXXXXXXXXXXXXXXXXXXXXXXXXXXXXXXXXXXXXXXXXXXXXXX   ..................",
"..................   XXXXXXXXXXXXXXXXXXXXXXXXXXXXXXXXXXXXXXXXXXXXXXXXXXXXXX   ..................",
"..................   XXXXXXXXXXXXXXXXXXXXXXXXXXXXXXXXXXXXXXXXXXXXXXXXXXXXXX   ..................",
"..................   XXXXXXXXXXXXXXXXXXXXXXXXXXXXXXXXXXXXXXXXXXXXXXXXXXXXXX   ..................",
"..................   XXXXXXXXXXXXXXXXXXXXXXXXXXXXXXXXXXXXXXXXXXXXXXXXXXXXXX   ..................",
"..................   XXXXXXXXXXXXXXXXXXXXXXXXXXXXXXXXXXXXXXXXXXXXXXXXXXXXXX   ..................",
"..................   XXXXXXXXXXXXXXXXXXXXXXXXXXXXXXXXXXXXXXXXXXXXXXXXXXXXXX   ..................",
"..................   XXXXXXXXXXXXXXXXXXXXXXXXXXXXXXXXXXXXXXXXXXXXXXXXXXXXXX   ..................",
"..................   XXXXXXXXXXXXXXXXXXXXXXXXXXXXXXXXXXXXXXXXXXXXXXXXXXXXXX   ..................",
"..................   XXXXXXXXXXXXXXXXXXXXXXXXXXXXXXXXXXXXXXXXXXXXXXXXXXXXXX   ..................",
"..................   XXXXXXXXXXXXXXXXXXXXXXXXXXXXXXXXXXXXXXXXXXXXXXXXXXXXXX   ..................",
"..................   XXXXXXXXXXXXXXXXXXXXXXXXXXXXXXXXXXXXXXXXXXXXXXXXXXXXXX   ..................",
"..................   XXXXXXXXXXXXXXXXXXXXXXXXXXXXXXXXXXXXXXXXXXXXXXXXXXX   XXX..................",
"..................   XXXXXXXXXXXXXXXXXXXXXXXXXXXXXXXXXXXXXXXXXXXXXXXXXXX   XXX..................",
"..................   XXXXXXXXXXXXXXXXXXXXXXXXXXXXXXXXXXXXXXXXXXXXXXXXXXX   XXX..................",
".....................   XXXXXXXXXXXXXXXXXXXXXXXXXXXXXXXXXXXXXXXXXXXXXXXX   .....................",
".....................   XXXXXXXXXXXXXXXXXXXXXXXXXXXXXXXXXXXXXXXXXXXXXXXX   .....................",
".....................   XXXXXXXXXXXXXXXXXXXXXXXXXXXXXXXXXXXXXXXXXXXXXXXX   .....................",
".....................   XXXXXX      XXXXXX            XXXXXX      XXXXXX   .....................",
".....................   XXXXXX      XXXXXX            XXXXXX      XXXXXX   .....................",
".....................   XXXXXX      XXXXXX            XXXXXX      XXXXXX   .....................",
"............XXX......   XXX   ...   XXXXXX   ......   XXXXXX      XXX   ........................",
"............XXX......   XXX   ...   XXXXXX   ......   XXXXXX      XXX   ........................",
"............XXX......   XXX   ...   XXXXXX   ......   XXXXXX      XXX   ........................",
"........................   ......   XXX   .........   XXX   ......   ...........................",
"........................   ......   XXX   .........   XXX   ......   ...........................",
"........................   ......   XXX   .........   XXX   ......   ...........................",
"....................................   ...............   .......................................",
"....................................   ...............   .......................................",
"....................................   ...............   .......................................",
"........................................................................XXX.....................",
"........................................................................XXX.....................",
"........................................................................XXX.....................",
"........................XXX.................................XXX.................................",
"........................XXX.................................XXX.................................",
"........................XXX.................................XXX.................................",
"................................................................................................",
"................................................................................................",
"................................................................................................",
"................................................................................................",
"................................................................................................",
"................................................................................................",
"................................................................................................",
"................................................................................................",
"................................................................................................",
"................................................................................................",
"................................................................................................",
"................................................................................................",
"................................................................................................",
"................................................................................................",
"................................................................................................"
};
