/* XPM */
static char *_f642b712c574756c83928d0913d75e8IurQxlmNS0jUYMP8[] = {
/* columns rows colors chars-per-pixel */
"96 96 7 1 ",
"  c #121431",
". c #787062",
"X c #407F85",
"o c #928E86",
"O c #9AE0E7",
"+ c #E9FDFF",
"@ c white",
/* pixels */
"..................oooooo................................................oooooo..................",
"..................oooooo................................................oooooo..................",
"..................oooooo................................................oooooo..................",
"............oooooo................................................oooooo........................",
"............oooooo................................................oooooo........................",
"............oooooo................................................oooooo........................",
"......oooooo................................................oooooo..............................",
"......oooooo................................................oooooo..............................",
"......oooooo................................................oooooo..............................",
"oooooo               @@@                              @@@                                 ......",
"oooooo               @@@                              @@@                                 ......",
"oooooo               @@@                              @@@                                 ......",
"......XXXOOO+++                        @@@                                                oooooo",
"......XXXOOO+++                        @@@                                                oooooo",
"......XXXOOO+++                        @@@                                                oooooo",
"......   XXXOOO+++                                                                        ......",
"......   XXXOOO+++                                                                        ......",
"......   XXXOOO+++                                                                        ......",
"......      XXXOOO+++                                                                     ......",
"......      XXXOOO+++                                                                     ......",
"......      XXXOOO+++                                                                     ......",
"......         XXXOOO+++                        @@@                           @@@         ......",
"......         XXXOOO+++                        @@@                           @@@         ......",
"......         XXXOOO+++                        @@@                           @@@         ......",
"......                        @@@                                                         ......",
"......                        @@@                                                         ......",
"......                        @@@                                                         ......",
"......               XXXOOO+++                                                            ......",
"......               XXXOOO+++                                                            ......",
"......               XXXOOO+++                                                            ......",
"......                  XXXOOO+++                                                         ......",
"......                  XXXOOO+++                                                         ......",
"......                  XXXOOO+++                                                         ......",
"......                     XXXOOO+++                                                      ......",
"......                     XXXOOO+++                                                      ......",
"......                     XXXOOO+++                                                      ......",
"......                        XXXOOO+++                                                   ......",
"......                        XXXOOO+++                                                   ......",
"......                        XXXOOO+++                                                   ......",
"......                                                               @@@                  ......",
"......                                                               @@@                  ......",
"......                                                               @@@                  ......",
"......            @@@               XXXOOO+++      @@@                                    ......",
"......            @@@               XXXOOO+++      @@@                                    ......",
"......            @@@               XXXOOO+++      @@@                                    ......",
"......                                 XXXOOO+++                                          ......",
"......                                 XXXOOO+++                                          ......",
"......                                 XXXOOO+++                                          ......",
"......                                    XXXOOO+++                                       ......",
"......                                    XXXOOO+++                                       ......",
"......                                    XXXOOO+++                                       ......",
"......                                       XXXOOO+++                                    ......",
"......                                       XXXOOO+++                                    ......",
"......                                       XXXOOO+++                                    ......",
"......                        @@@                                                         ......",
"......                        @@@                                                         ......",
"......                        @@@                                                         ......",
"...ooo                                             XXXOOO+++               @@@            ......",
"...ooo                                             XXXOOO+++               @@@            ......",
"...ooo                                             XXXOOO+++               @@@            ......",
"ooo...                                          @@@   XXXOOO+++                           ...ooo",
"ooo...                                          @@@   XXXOOO+++                           ...ooo",
"ooo...                                          @@@   XXXOOO+++                           ...ooo",
"......                                                   XXXOOO+++                        ooo...",
"......                                                   XXXOOO+++                        ooo...",
"......                                                   XXXOOO+++                        ooo...",
"......      @@@                                             XXXOOO+++                     ......",
"......      @@@                                             XXXOOO+++                     ......",
"......      @@@                                             XXXOOO+++                     ......",
"......                                                                                    ......",
"......                                                                                    ......",
"......                                                                                    ......",
"......                                                            XXXOOO+++               ......",
"......                                                            XXXOOO+++               ......",
"......                                                            XXXOOO+++               ......",
"......                                                               XXXOOO+++            ......",
"......                                                               XXXOOO+++            ......",
"......                                                               XXXOOO+++            ......",
"......                  @@@                                 @@@         XXXOOO+++         ......",
"......                  @@@                                 @@@         XXXOOO+++         ......",
"......                  @@@                                 @@@         XXXOOO+++         ......",
"......                                                                     XXXOOO+++      ......",
"......                                                                     XXXOOO+++      ......",
"......                                                                     XXXOOO+++      ......",
"oooooo                                                                                    ......",
"oooooo                                                                                    ......",
"oooooo                                                                                    ......",
"....................................oooooo................................................oooooo",
"....................................oooooo................................................oooooo",
"....................................oooooo................................................oooooo",
"..............................oooooo................................................oooooo......",
"..............................oooooo................................................oooooo......",
"..............................oooooo................................................oooooo......",
"........................oooooo................................................oooooo............",
"........................oooooo................................................oooooo............",
"........................oooooo................................................oooooo............"
};
